# xmcd
#
# Track frame offsets:
#	150
#	11242
#	23595
#	33343
#	44072
#	55659
#	65242
#	76144
#	89755
#	100110
#	112804
#	126006
#	138365
#	151206
#
# Disc length: 2178 seconds
#
# Revision: 1
# Processed by: cddbd v1.5.2PL0 Copyright (c) Steve Scherf et al.
# Submitted via: audiograbber 1.83.01
#
DISCID=b208800e
DTITLE=diverse - Route 66 
DYEAR=1900
DGENRE=
TTITLE0=King Of The Road
TTITLE1=These Boots Are Made For Walki
TTITLE2=Six Days On The Road
TTITLE3=travelin´ man
TTITLE4=Ravishing Ruby
TTITLE5=in the jailhouse now
TTITLE6=Oh Lonesome Me
TTITLE7=Tennesee Waltz
TTITLE8=white lightning
TTITLE9=Let It Rain, Let Her Cry
TTITLE10=Do You Remember These
TTITLE11=never again will i knock on your door
TTITLE12=High Noon
TTITLE13=lost highway
EXTD=
EXTT0=
EXTT1=
EXTT2=
EXTT3=
EXTT4=
EXTT5=
EXTT6=
EXTT7=
EXTT8=
EXTT9=
EXTT10=
EXTT11=
EXTT12=
EXTT13=
PLAYORDER=
